# xmcd CD database file
#
# Track frame offsets:
#	150
#	16442
#	48770
#	70092
#	92215
#	109110
#	130492
#	154870
#	177282
#	194647
#	211925
#	231362
#
# Disc length: 3341 seconds
#
# Revision: 1
# Processed by: cddbd v1.5PL3 Copyright (c) Steve Scherf et al.
# Submitted via: CDex 1.50
#
DISCID=a80d0b0c
DTITLE=T-BOLAN - 1999 REMIXES
DYEAR=1999
DGENRE=JPop
TTITLE0=じれったい愛 '98
TTITLE1=おさえきれない この気持ち '99
TTITLE2=刹那さを消せやしない '99
TTITLE3=離したくはない '99
TTITLE4=悲しみが痛いよ '99
TTITLE5=Bye For Now '98
TTITLE6=No.1 Girl '99
TTITLE7=Heart of Gold '99
TTITLE8=傷だらけを抱きしめて '99
TTITLE9=わがままに抱き合えたなら '99
TTITLE10=すれ違いの純情 '99
TTITLE11=BOY '99
EXTD=YEAR: 1999
EXTT0=
EXTT1=
EXTT2=
EXTT3=
EXTT4=
EXTT5=
EXTT6=
EXTT7=
EXTT8=
EXTT9=
EXTT10=
EXTT11=
PLAYORDER=
